<svg xmlns="http://www.w3.org/2000/svg" viewBox="0 0 738 863" width="738" height="863" data-frame='{"plates":[{"id":"capital","proj":"profile","unit":"in","px_per_in":44.285714,"origin_px":[70,74],"at_origin_in":[5.0,168.0],"datum":"axis"}]}'>
<style>.lb{font:600 9px/1 ui-sans-serif,system-ui,sans-serif;fill:#1b1a17;letter-spacing:.08em}.dm{font:8px/1 ui-monospace,SFMono-Regular,Menlo,monospace;fill:#6f6a60}.ti{font:600 13px/1 ui-serif,Georgia,serif;fill:#1b1a17}.pf{fill:none;stroke:#c9c2b4;stroke-width:.6}</style>
<rect width="738" height="863" fill="#faf8f3"/>
<text class="ti" x="44" y="30">Corinthian Order (Asher Benjamin) - overlay on Vignola — capital</text>
<rect class="pf" x="8" y="38" width="722" height="662"/>
<line x1="70.0" y1="694.0" x2="70.0" y2="74.0" stroke="#6f6a60" stroke-width=".5" stroke-dasharray="2 2"/>
<path d="M 70.000,694.000 L 188.097,694.000 L 188.097,516.857 L 217.618,516.857 L 217.618,339.714 L 247.143,339.714 L 247.143,162.571 A 88.571 51.668 0 0 1 335.714,110.903 L 365.240,110.903 L 365.240,103.525 A 14.760 29.525 0 0 0 380.000,74.000 L 70.000,74.000 Z" fill="#b08d57" fill-opacity=".5" stroke="none"/>
<path d="M 70.000,694.000 M 188.097,694.000 M 188.097,516.857 M 217.618,516.857 M 217.618,339.714 M 247.143,339.714 M 247.143,162.571 A 88.571 51.668 0 0 1 335.714,110.903 L 365.240,110.903 L 365.240,103.525 A 14.760 29.525 0 0 0 380.000,74.000 L 70.000,74.000" fill="none" stroke="#1b1a17" stroke-width=".9"/>
<path class="confidence" data-member="abacus_cavetto" d="M 70.000,162.571 L 247.143,162.571 A 88.571 51.668 0 0 1 335.714,110.903 L 70.000,110.903 Z" fill="none" stroke="#6f6a60" stroke-width=".8" stroke-dasharray="2 2"/>
<path class="confidence" data-member="abacus_fillet" d="M 70.000,110.903 L 335.714,110.903 L 365.240,110.903 L 365.240,103.525 L 70.000,103.525 Z" fill="none" stroke="#6f6a60" stroke-width=".8" stroke-dasharray="2 2"/>
<path class="confidence" data-member="abacus_ovolo" d="M 70.000,103.525 L 365.240,103.525 A 14.760 29.525 0 0 0 380.000,74.000 L 70.000,74.000 Z" fill="none" stroke="#6f6a60" stroke-width=".8" stroke-dasharray="2 2"/>
<path class="envelope" d="M 70.0000,694.0000 L 188.0967,694.0000 L 188.0967,516.8571 L 70.0000,516.8571 Z M 70.0000,516.8571 L 217.6176,516.8571 L 217.6176,339.7143 L 70.0000,339.7143 Z M 70.0000,339.7143 L 247.1429,339.7143 L 247.1429,162.5714 L 70.0000,162.5714 Z" fill="none" stroke="#1b1a17" stroke-width=".7" stroke-dasharray="1.5 2"/>
<line x1="189.1" y1="605.4" x2="404.0" y2="605.4" stroke="#6f6a60" stroke-width=".35"/>
<text class="dm" x="408.0" y="608.0">First (lower) row of eight acanthus leaves — acanthus, 4.00″</text>
<line x1="218.6" y1="428.3" x2="404.0" y2="428.3" stroke="#6f6a60" stroke-width=".35"/>
<text class="dm" x="408.0" y="430.9">Second (upper) row of eight acanthus leaves,… — acanthus, 4.00″</text>
<line x1="248.1" y1="251.1" x2="404.0" y2="251.1" stroke="#6f6a60" stroke-width=".35"/>
<text class="dm" x="408.0" y="253.7">Eight caulicoli with helices and angle volutes — volute, 4.00″</text>
<line x1="336.7" y1="136.7" x2="404.0" y2="136.7" stroke="#6f6a60" stroke-width=".35"/>
<text class="dm" x="408.0" y="139.3">Hollow face of the abacus — cavetto, 1.17″, medium confidence</text>
<line x1="366.2" y1="107.2" x2="404.0" y2="107.2" stroke="#6f6a60" stroke-width=".35"/>
<text class="dm" x="408.0" y="109.8">Fillet of the abacus — fillet, 0.17″, medium confidence</text>
<line x1="381.0" y1="88.8" x2="404.0" y2="88.8" stroke="#6f6a60" stroke-width=".35"/>
<text class="dm" x="408.0" y="91.4">Ovolo of the abacus — ovolo, 0.67″, medium confidence</text>
<text class="dm" x="44" y="715.0">GENERATED FROM THE RECORD BY build/render_profile.py — NOT A DRAWING OF A REAL BUILDING.</text>
<text class="dm" x="44" y="726.0">Corinthian Order (Asher Benjamin) - overlay on Vignola, assembly capital, at a 12″ column. 6 member(s), 14.00″ high, 7.00″ of</text>
<text class="dm" x="44" y="737.0">relief from the naked.</text>
<text class="dm" x="44" y="748.0">All 6 member(s) publish a projection.</text>
<text class="dm" x="44" y="759.0">3 member(s) outlined dashed: their confidence is medium, low or unstated, the authority's total being stated and the division</text>
<text class="dm" x="44" y="770.0">among them apportioned or read from a plate at low confidence.</text>
<text class="dm" x="44" y="781.0">INHERITED: benjamin-corinthian STATES NO CAPITAL OF ITS OWN. These members are vignola-corinthian's, delivered by the overlay, and</text>
<text class="dm" x="44" y="792.0">the citation below is THEIRS.</text>
<text class="dm" x="44" y="803.0">AFTER: Vignola, Regola delli cinque ordini d'architettura, Rome 1562, plates XX-XXV</text>
<text class="dm" x="44" y="814.0">NOT CONSTRUCTED: DRAWN AS THEIR DASHED ENVELOPE, THE BOX THEIR HEIGHT AND PROJECTION BOUND, WITH NO SHAPE INSIDE IT: acanthus row</text>
<text class="dm" x="44" y="825.0">1 (acanthus), acanthus row 2 (acanthus), caulicoli (volute)</text>
</svg>
