<svg xmlns="http://www.w3.org/2000/svg" viewBox="0 0 738 819" width="738" height="819" data-frame='{"plates":[{"id":"base","proj":"profile","unit":"in","px_per_in":103.333333,"origin_px":[70,74],"at_origin_in":[6.0,42.0],"datum":"naked"}]}'>
<style>.lb{font:600 9px/1 ui-sans-serif,system-ui,sans-serif;fill:#1b1a17;letter-spacing:.08em}.dm{font:8px/1 ui-monospace,SFMono-Regular,Menlo,monospace;fill:#6f6a60}.ti{font:600 13px/1 ui-serif,Georgia,serif;fill:#1b1a17}.pf{fill:none;stroke:#c9c2b4;stroke-width:.6}</style>
<rect width="738" height="819" fill="#faf8f3"/>
<text class="ti" x="44" y="30">Palladio's Ionic Order (overlay on Vignola) — base</text>
<rect class="pf" x="36" y="38" width="666" height="662"/>
<line x1="70.0" y1="694.0" x2="70.0" y2="74.0" stroke="#6f6a60" stroke-width=".5" stroke-dasharray="2 2"/>
<path d="M 70.000,694.000 L 70.000,487.333 L 70.000,332.333 L 70.000,306.500 L 70.000,203.167 L 70.000,177.333 L 70.000,74.000 L 70.000,74.000 Z" fill="#b08d57" fill-opacity=".5" stroke="none"/>
<path d="M 70.000,694.000 M 70.000,487.333 M 70.000,332.333 M 70.000,306.500 M 70.000,203.167 M 70.000,177.333 M 70.000,74.000 L 70.000,74.000" fill="none" stroke="#1b1a17" stroke-width=".9"/>
<path class="ghost" d="M 173.3333,694.0000 L 70.0000,694.0000 L 70.0000,487.3333 L 173.3333,487.3333 M 147.5000,487.3333 L 70.0000,487.3333 L 70.0000,332.3333 L 147.5000,332.3333 M 82.9167,332.3333 L 70.0000,332.3333 L 70.0000,306.5000 L 82.9167,306.5000 M 121.6667,306.5000 L 70.0000,306.5000 L 70.0000,203.1667 L 121.6667,203.1667 M 82.9167,203.1667 L 70.0000,203.1667 L 70.0000,177.3333 L 82.9167,177.3333 M 121.6667,177.3333 L 70.0000,177.3333 L 70.0000,74.0000 L 121.6667,74.0000" fill="none" stroke="#1b1a17" stroke-width=".7" stroke-dasharray="3 2"/>
<path class="confidence" data-member="base_lower_torus" d="M 70.000,487.333 L 70.000,487.333 L 70.000,332.333 L 70.000,332.333 Z" fill="none" stroke="#6f6a60" stroke-width=".8" stroke-dasharray="2 2"/>
<path class="confidence" data-member="base_lower_listel" d="M 70.000,332.333 L 70.000,332.333 L 70.000,306.500 L 70.000,306.500 Z" fill="none" stroke="#6f6a60" stroke-width=".8" stroke-dasharray="2 2"/>
<path class="confidence" data-member="base_scotia" d="M 70.000,306.500 L 70.000,306.500 L 70.000,203.167 L 70.000,203.167 Z" fill="none" stroke="#6f6a60" stroke-width=".8" stroke-dasharray="2 2"/>
<path class="confidence" data-member="base_upper_listel" d="M 70.000,203.167 L 70.000,203.167 L 70.000,177.333 L 70.000,177.333 Z" fill="none" stroke="#6f6a60" stroke-width=".8" stroke-dasharray="2 2"/>
<path class="confidence" data-member="base_upper_torus" d="M 70.000,177.333 L 70.000,177.333 L 70.000,74.000 L 70.000,74.000 Z" fill="none" stroke="#6f6a60" stroke-width=".8" stroke-dasharray="2 2"/>
<line x1="71.0" y1="590.7" x2="404.0" y2="590.7" stroke="#6f6a60" stroke-width=".35"/>
<text class="dm" x="408.0" y="593.3">Plinth or zocco — plinth, 2.00″, no projection</text>
<line x1="71.0" y1="409.8" x2="404.0" y2="409.8" stroke="#6f6a60" stroke-width=".35"/>
<text class="dm" x="408.0" y="412.4">Lower torus — torus, 1.50″, no projection, medium confidence</text>
<line x1="71.0" y1="319.4" x2="404.0" y2="319.4" stroke="#6f6a60" stroke-width=".35"/>
<text class="dm" x="408.0" y="322.0">Lower listel — fillet, 0.25″, no projection, medium confidence</text>
<line x1="71.0" y1="254.8" x2="404.0" y2="254.8" stroke="#6f6a60" stroke-width=".35"/>
<text class="dm" x="408.0" y="257.4">Scotia (cavett… — scotia, 1.00″, no projection, medium confidence</text>
<line x1="71.0" y1="190.2" x2="404.0" y2="190.2" stroke="#6f6a60" stroke-width=".35"/>
<text class="dm" x="408.0" y="192.8">Upper listel — fillet, 0.25″, no projection, medium confidence</text>
<line x1="71.0" y1="125.7" x2="404.0" y2="125.7" stroke="#6f6a60" stroke-width=".35"/>
<text class="dm" x="408.0" y="128.3">Upper torus — torus, 1.00″, no projection, medium confidence</text>
<text class="dm" x="44" y="715.0">GENERATED FROM THE RECORD BY build/render_profile.py — NOT A DRAWING OF A REAL BUILDING.</text>
<text class="dm" x="44" y="726.0">Palladio's Ionic Order (overlay on Vignola), assembly base, at a 12″ column. 6 member(s), 6.00″ high, no relief drawn: no member</text>
<text class="dm" x="44" y="737.0">publishes a projection.</text>
<text class="dm" x="44" y="748.0">6 member(s) drawn as a dashed bracket at the naked: no projection published, so no face is drawn for them.</text>
<text class="dm" x="44" y="759.0">5 member(s) outlined dashed: their confidence is medium, low or unstated, the authority's total being stated and the division</text>
<text class="dm" x="44" y="770.0">among them apportioned or read from a plate at low confidence.</text>
<text class="dm" x="44" y="781.0">AFTER: Palladio, I Quattro Libri dell'Architettura, Venice 1570, Book I chapters XII, XIII, XVI and XIX</text>
</svg>
