<svg xmlns="http://www.w3.org/2000/svg" viewBox="0 0 738 461" width="738" height="461" data-frame='{"plates":[{"id":"cornice","proj":"profile","unit":"in","px_per_in":26.666667,"origin_px":[70,74],"at_origin_in":[5.07692,152.0],"datum":"naked"}]}'>
<style>.lb{font:600 9px/1 ui-sans-serif,system-ui,sans-serif;fill:#1b1a17;letter-spacing:.08em}.dm{font:8px/1 ui-monospace,SFMono-Regular,Menlo,monospace;fill:#6f6a60}.ti{font:600 13px/1 ui-serif,Georgia,serif;fill:#1b1a17}.pf{fill:none;stroke:#c9c2b4;stroke-width:.6}</style>
<rect width="738" height="461" fill="#faf8f3"/>
<text class="ti" x="44" y="30">Palladio's Doric Order (overlay on Vignola) — cornice</text>
<rect class="pf" x="36" y="38" width="666" height="282"/>
<line x1="70.0" y1="314.0" x2="70.0" y2="74.0" stroke="#6f6a60" stroke-width=".5" stroke-dasharray="2 2"/>
<path d="M 70.000,314.000 L 96.667,314.000 L 96.667,294.000 L 110.000,294.000 L 110.000,284.000 A 26.667 30.000 0 0 0 136.667,254.000 L 310.000,254.000 L 310.000,204.000 A 5.208 5.208 0 0 1 316.667,199.000 A 5.208 5.208 0 0 0 323.333,194.000 L 363.333,194.000 L 363.333,144.000 A 5.417 5.417 0 0 1 366.667,139.000 A 5.417 5.417 0 0 0 370.000,134.000 L 373.333,134.000 L 373.333,124.000 A 11.736 11.736 0 0 0 381.667,104.000 A 11.736 11.736 0 0 1 390.000,84.000 L 390.000,74.000 L 70.000,74.000 Z" fill="#b08d57" fill-opacity=".5" stroke="none"/>
<path d="M 70.000,314.000 L 96.667,314.000 L 96.667,294.000 L 110.000,294.000 L 110.000,284.000 A 26.667 30.000 0 0 0 136.667,254.000 L 310.000,254.000 L 310.000,204.000 A 5.208 5.208 0 0 1 316.667,199.000 A 5.208 5.208 0 0 0 323.333,194.000 L 363.333,194.000 L 363.333,144.000 A 5.417 5.417 0 0 1 366.667,139.000 A 5.417 5.417 0 0 0 370.000,134.000 L 373.333,134.000 L 373.333,124.000 A 11.736 11.736 0 0 0 381.667,104.000 A 11.736 11.736 0 0 1 390.000,84.000 L 390.000,74.000 L 70.000,74.000" fill="none" stroke="#1b1a17" stroke-width=".9"/>
<path class="confidence" data-member="corn_fillet" d="M 70.000,294.000 L 96.667,294.000 L 110.000,294.000 L 110.000,284.000 L 70.000,284.000 Z" fill="none" stroke="#6f6a60" stroke-width=".8" stroke-dasharray="2 2"/>
<path class="confidence" data-member="corn_cyma_over_mutule" d="M 70.000,204.000 L 310.000,204.000 A 5.208 5.208 0 0 1 316.667,199.000 A 5.208 5.208 0 0 0 323.333,194.000 L 70.000,194.000 Z" fill="none" stroke="#6f6a60" stroke-width=".8" stroke-dasharray="2 2"/>
<path class="confidence" data-member="corn_cyma_over_corona" d="M 70.000,144.000 L 363.333,144.000 A 5.417 5.417 0 0 1 366.667,139.000 A 5.417 5.417 0 0 0 370.000,134.000 L 70.000,134.000 Z" fill="none" stroke="#6f6a60" stroke-width=".8" stroke-dasharray="2 2"/>
<path class="confidence" data-member="corn_fillet_under_cyma" d="M 70.000,134.000 L 370.000,134.000 L 373.333,134.000 L 373.333,124.000 L 70.000,124.000 Z" fill="none" stroke="#6f6a60" stroke-width=".8" stroke-dasharray="2 2"/>
<path class="confidence" data-member="corn_fillet_top" d="M 70.000,84.000 L 390.000,84.000 L 390.000,74.000 L 70.000,74.000 Z" fill="none" stroke="#6f6a60" stroke-width=".8" stroke-dasharray="2 2"/>
<line x1="97.7" y1="304.0" x2="404.0" y2="288.0" stroke="#6f6a60" stroke-width=".35"/>
<text class="dm" x="408.0" y="290.6">Cap of the triglyph (fascia) — fascia, 0.75″</text>
<line x1="111.0" y1="289.0" x2="404.0" y2="273.3" stroke="#6f6a60" stroke-width=".35"/>
<text class="dm" x="408.0" y="275.9">Narrow fillet over the cap of… — fillet, 0.38″, medium confidence</text>
<line x1="137.7" y1="269.0" x2="404.0" y2="253.8" stroke="#6f6a60" stroke-width=".35"/>
<text class="dm" x="408.0" y="256.4">Ovolo (bed mould) — ovolo, 1.12″</text>
<line x1="311.0" y1="229.0" x2="404.0" y2="214.7" stroke="#6f6a60" stroke-width=".35"/>
<text class="dm" x="408.0" y="217.3">Mutule band with mutules (modiglioni) — mutule, 1.88″</text>
<line x1="324.3" y1="199.0" x2="404.0" y2="185.3" stroke="#6f6a60" stroke-width=".35"/>
<text class="dm" x="408.0" y="187.9">Cyma reversa crowning t… — cyma reversa, 0.38″, medium confidence</text>
<line x1="364.3" y1="169.0" x2="404.0" y2="156.0" stroke="#6f6a60" stroke-width=".35"/>
<text class="dm" x="408.0" y="158.6">Corona (gocciolatoio) — corona, 1.88″</text>
<line x1="371.0" y1="139.0" x2="404.0" y2="126.7" stroke="#6f6a60" stroke-width=".35"/>
<text class="dm" x="408.0" y="129.3">Small cyma reversa over… — cyma reversa, 0.38″, medium confidence</text>
<line x1="374.3" y1="129.0" x2="404.0" y2="115.9" stroke="#6f6a60" stroke-width=".35"/>
<text class="dm" x="408.0" y="118.5">Fillet under the cymatium (pi… — fillet, 0.38″, medium confidence</text>
<line x1="391.0" y1="104.0" x2="404.0" y2="92.4" stroke="#6f6a60" stroke-width=".35"/>
<text class="dm" x="408.0" y="95.0">Cymatium, cyma recta (gola dritta) — cyma recta, 1.50″</text>
<line x1="391.0" y1="79.0" x2="404.0" y2="68.0" stroke="#6f6a60" stroke-width=".35"/>
<text class="dm" x="408.0" y="70.6">Fillet over the cymatium (lis… — fillet, 0.38″, medium confidence</text>
<text class="dm" x="44" y="335.0">GENERATED FROM THE RECORD BY build/render_profile.py — NOT A DRAWING OF A REAL BUILDING.</text>
<text class="dm" x="44" y="346.0">Palladio's Doric Order (overlay on Vignola), assembly cornice, at a 12″ column. 10 member(s), 9.00″ high, 12.00″ of relief from</text>
<text class="dm" x="44" y="357.0">the naked.</text>
<text class="dm" x="44" y="368.0">All 10 member(s) publish a projection.</text>
<text class="dm" x="44" y="379.0">5 member(s) outlined dashed: their confidence is medium, low or unstated, the authority's total being stated and the division</text>
<text class="dm" x="44" y="390.0">among them apportioned or read from a plate at low confidence.</text>
<text class="dm" x="44" y="401.0">INHERITED: palladio-doric STATES NO CORNICE OF ITS OWN. These members are vignola-doric's, delivered by the overlay, and the</text>
<text class="dm" x="44" y="412.0">citation below is THEIRS.</text>
<text class="dm" x="44" y="423.0">AFTER: Vignola, Regola delli cinque ordini d'architettura, Rome 1562, Tavole X-XV (Tavola XII, the mutulary/modillion entablature)</text>
</svg>
